{
    "asset" : {
        "generator" : "Khronos glTF Blender I/O v1.4.40",
        "version" : "2.0"
    },
    "scene" : 0,
    "scenes" : [
        {
            "name" : "Scene",
            "nodes" : [
                0,
                1,
                2,
                3,
                4,
                5,
                6,
                7,
                8,
                9,
                10,
                11
            ]
        }
    ],
    "nodes" : [
        {
            "name" : "Light",
            "rotation" : [
                0.16907575726509094,
                0.7558803558349609,
                -0.27217137813568115,
                0.570947527885437
            ],
            "translation" : [
                4.076245307922363,
                5.903861999511719,
                -1.0054539442062378
            ]
        },
        {
            "name" : "Camera",
            "rotation" : [
                0.483536034822464,
                0.33687159419059753,
                -0.20870360732078552,
                0.7804827094078064
            ],
            "translation" : [
                7.358891487121582,
                4.958309173583984,
                6.925790786743164
            ]
        },
        {
            "mesh" : 0,
            "name" : "Curve",
            "rotation" : [
                0.7047871947288513,
                0,
                0,
                0.7094188332557678
            ],
            "scale" : [
                10,
                1,
                10
            ],
            "translation" : [
                -0.3102843463420868,
                -0.14013057947158813,
                0.0036070123314857483
            ]
        },
        {
            "mesh" : 1,
            "name" : "Curve.001",
            "rotation" : [
                0.7047871947288513,
                0,
                0,
                0.7094188332557678
            ],
            "scale" : [
                10,
                1,
                10
            ],
            "translation" : [
                -0.3102843463420868,
                -0.14013057947158813,
                0.0036070123314857483
            ]
        },
        {
            "mesh" : 2,
            "name" : "Curve.002",
            "rotation" : [
                0.7047871947288513,
                0,
                0,
                0.7094188332557678
            ],
            "scale" : [
                10,
                1,
                10
            ],
            "translation" : [
                -0.3102843463420868,
                -0.14013057947158813,
                0.0036070123314857483
            ]
        },
        {
            "mesh" : 3,
            "name" : "Curve.003",
            "rotation" : [
                0.7047871947288513,
                0,
                0,
                0.7094188332557678
            ],
            "scale" : [
                10,
                1,
                10
            ],
            "translation" : [
                -0.3102843463420868,
                -0.14013057947158813,
                0.0036070123314857483
            ]
        },
        {
            "mesh" : 4,
            "name" : "Curve.004",
            "rotation" : [
                0.7047871947288513,
                0,
                0,
                0.7094188332557678
            ],
            "scale" : [
                10,
                1,
                10
            ],
            "translation" : [
                -0.3102843463420868,
                -0.14013057947158813,
                0.0036070123314857483
            ]
        },
        {
            "mesh" : 5,
            "name" : "Curve.005",
            "rotation" : [
                0.7047871947288513,
                0,
                0,
                0.7094188332557678
            ],
            "scale" : [
                10,
                1,
                10
            ],
            "translation" : [
                -0.3102843463420868,
                -0.14013057947158813,
                0.0036070123314857483
            ]
        },
        {
            "mesh" : 6,
            "name" : "Curve.006",
            "rotation" : [
                0.7047871947288513,
                0,
                0,
                0.7094188332557678
            ],
            "scale" : [
                10,
                1,
                10
            ],
            "translation" : [
                -0.3102843463420868,
                -0.14013057947158813,
                0.0036070123314857483
            ]
        },
        {
            "mesh" : 7,
            "name" : "Curve.007",
            "rotation" : [
                0.7047871947288513,
                0,
                0,
                0.7094188332557678
            ],
            "scale" : [
                10,
                1,
                10
            ],
            "translation" : [
                -0.3102843463420868,
                -0.14013057947158813,
                0.0036070123314857483
            ]
        },
        {
            "mesh" : 8,
            "name" : "Curve.008",
            "rotation" : [
                0.7047871947288513,
                0,
                0,
                0.7094188332557678
            ],
            "scale" : [
                10,
                1,
                10
            ],
            "translation" : [
                -0.3102843463420868,
                -0.14013057947158813,
                0.0036070123314857483
            ]
        },
        {
            "mesh" : 9,
            "name" : "Curve.009",
            "rotation" : [
                0.7047871947288513,
                0,
                0,
                0.7094188332557678
            ],
            "scale" : [
                10,
                1,
                10
            ],
            "translation" : [
                -0.3102843463420868,
                -0.14013057947158813,
                0.0036070123314857483
            ]
        }
    ],
    "materials" : [
        {
            "doubleSided" : true,
            "name" : "SVGMat",
            "pbrMetallicRoughness" : {
                "baseColorFactor" : [
                    0,
                    0,
                    0,
                    1
                ],
                "metallicFactor" : 0,
                "roughnessFactor" : 0.4000000059604645
            }
        }
    ],
    "meshes" : [
        {
            "name" : "Curve",
            "primitives" : [
                {
                    "attributes" : {
                        "POSITION" : 0,
                        "NORMAL" : 1,
                        "TEXCOORD_0" : 2
                    },
                    "indices" : 3,
                    "material" : 0
                }
            ]
        },
        {
            "name" : "Curve.001",
            "primitives" : [
                {
                    "attributes" : {
                        "POSITION" : 4,
                        "NORMAL" : 5,
                        "TEXCOORD_0" : 6
                    },
                    "indices" : 7,
                    "material" : 0
                }
            ]
        },
        {
            "name" : "Curve.002",
            "primitives" : [
                {
                    "attributes" : {
                        "POSITION" : 8,
                        "NORMAL" : 9,
                        "TEXCOORD_0" : 10
                    },
                    "indices" : 11,
                    "material" : 0
                }
            ]
        },
        {
            "name" : "Curve.003",
            "primitives" : [
                {
                    "attributes" : {
                        "POSITION" : 12,
                        "NORMAL" : 13,
                        "TEXCOORD_0" : 14
                    },
                    "indices" : 15,
                    "material" : 0
                }
            ]
        },
        {
            "name" : "Curve.004",
            "primitives" : [
                {
                    "attributes" : {
                        "POSITION" : 16,
                        "NORMAL" : 17,
                        "TEXCOORD_0" : 18
                    },
                    "indices" : 19,
                    "material" : 0
                }
            ]
        },
        {
            "name" : "Curve.005",
            "primitives" : [
                {
                    "attributes" : {
                        "POSITION" : 20,
                        "NORMAL" : 21,
                        "TEXCOORD_0" : 22
                    },
                    "indices" : 23,
                    "material" : 0
                }
            ]
        },
        {
            "name" : "Curve.006",
            "primitives" : [
                {
                    "attributes" : {
                        "POSITION" : 24,
                        "NORMAL" : 25,
                        "TEXCOORD_0" : 26
                    },
                    "indices" : 27,
                    "material" : 0
                }
            ]
        },
        {
            "name" : "Curve.007",
            "primitives" : [
                {
                    "attributes" : {
                        "POSITION" : 28,
                        "NORMAL" : 29,
                        "TEXCOORD_0" : 30
                    },
                    "indices" : 31,
                    "material" : 0
                }
            ]
        },
        {
            "name" : "Curve.008",
            "primitives" : [
                {
                    "attributes" : {
                        "POSITION" : 32,
                        "NORMAL" : 33,
                        "TEXCOORD_0" : 34
                    },
                    "indices" : 35,
                    "material" : 0
                }
            ]
        },
        {
            "name" : "Curve.009",
            "primitives" : [
                {
                    "attributes" : {
                        "POSITION" : 36,
                        "NORMAL" : 37,
                        "TEXCOORD_0" : 38
                    },
                    "indices" : 39,
                    "material" : 0
                }
            ]
        }
    ],
    "accessors" : [
        {
            "bufferView" : 0,
            "componentType" : 5126,
            "count" : 1170,
            "max" : [
                0.015370136126875877,
                0.03999999910593033,
                -0.013292953372001648
            ],
            "min" : [
                0,
                -0.03999999910593033,
                -0.03229699283838272
            ],
            "type" : "VEC3"
        },
        {
            "bufferView" : 1,
            "componentType" : 5126,
            "count" : 1170,
            "type" : "VEC3"
        },
        {
            "bufferView" : 2,
            "componentType" : 5126,
            "count" : 1170,
            "type" : "VEC2"
        },
        {
            "bufferView" : 3,
            "componentType" : 5123,
            "count" : 2256,
            "type" : "SCALAR"
        },
        {
            "bufferView" : 4,
            "componentType" : 5126,
            "count" : 1013,
            "max" : [
                0.023901889100670815,
                0.03999999910593033,
                -0.013292953372001648
            ],
            "min" : [
                0.015076618641614914,
                -0.03999999910593033,
                -0.03229699283838272
            ],
            "type" : "VEC3"
        },
        {
            "bufferView" : 5,
            "componentType" : 5126,
            "count" : 1013,
            "type" : "VEC3"
        },
        {
            "bufferView" : 6,
            "componentType" : 5126,
            "count" : 1013,
            "type" : "VEC2"
        },
        {
            "bufferView" : 7,
            "componentType" : 5123,
            "count" : 1884,
            "type" : "SCALAR"
        },
        {
            "bufferView" : 8,
            "componentType" : 5126,
            "count" : 1174,
            "max" : [
                0.03957400843501091,
                0.03999999910593033,
                -0.013292953372001648
            ],
            "min" : [
                0.02572508156299591,
                -0.03999999910593033,
                -0.032734353095293045
            ],
            "type" : "VEC3"
        },
        {
            "bufferView" : 9,
            "componentType" : 5126,
            "count" : 1174,
            "type" : "VEC3"
        },
        {
            "bufferView" : 10,
            "componentType" : 5126,
            "count" : 1174,
            "type" : "VEC2"
        },
        {
            "bufferView" : 11,
            "componentType" : 5123,
            "count" : 2172,
            "type" : "SCALAR"
        },
        {
            "bufferView" : 12,
            "componentType" : 5126,
            "count" : 1178,
            "max" : [
                0.012765171937644482,
                0.03999999910593033,
                -1.975148916244507e-05
            ],
            "min" : [
                0.001859882497228682,
                -0.03999999910593033,
                -0.011523755267262459
            ],
            "type" : "VEC3"
        },
        {
            "bufferView" : 13,
            "componentType" : 5126,
            "count" : 1178,
            "type" : "VEC3"
        },
        {
            "bufferView" : 14,
            "componentType" : 5126,
            "count" : 1178,
            "type" : "VEC2"
        },
        {
            "bufferView" : 15,
            "componentType" : 5123,
            "count" : 2292,
            "type" : "SCALAR"
        },
        {
            "bufferView" : 16,
            "componentType" : 5126,
            "count" : 1497,
            "max" : [
                0.02056313119828701,
                0.03999999910593033,
                -6.4898282289505e-05
            ],
            "min" : [
                0.012753882445394993,
                -0.03999999910593033,
                -0.013995552435517311
            ],
            "type" : "VEC3"
        },
        {
            "bufferView" : 17,
            "componentType" : 5126,
            "count" : 1497,
            "type" : "VEC3"
        },
        {
            "bufferView" : 18,
            "componentType" : 5126,
            "count" : 1497,
            "type" : "VEC2"
        },
        {
            "bufferView" : 19,
            "componentType" : 5123,
            "count" : 2784,
            "type" : "SCALAR"
        },
        {
            "bufferView" : 20,
            "componentType" : 5126,
            "count" : 1304,
            "max" : [
                0.03230946138501167,
                0.03999999910593033,
                -4.232674837112427e-05
            ],
            "min" : [
                0.021203787997364998,
                -0.03999999910593033,
                -0.011250054463744164
            ],
            "type" : "VEC3"
        },
        {
            "bufferView" : 21,
            "componentType" : 5126,
            "count" : 1304,
            "type" : "VEC3"
        },
        {
            "bufferView" : 22,
            "componentType" : 5126,
            "count" : 1304,
            "type" : "VEC2"
        },
        {
            "bufferView" : 23,
            "componentType" : 5123,
            "count" : 2496,
            "type" : "SCALAR"
        },
        {
            "bufferView" : 24,
            "componentType" : 5126,
            "count" : 1295,
            "max" : [
                0.04481780529022217,
                0.03999999910593033,
                -8.18297266960144e-05
            ],
            "min" : [
                0.033077120780944824,
                -0.03999999910593033,
                -0.015180658549070358
            ],
            "type" : "VEC3"
        },
        {
            "bufferView" : 25,
            "componentType" : 5126,
            "count" : 1295,
            "type" : "VEC3"
        },
        {
            "bufferView" : 26,
            "componentType" : 5126,
            "count" : 1295,
            "type" : "VEC2"
        },
        {
            "bufferView" : 27,
            "componentType" : 5123,
            "count" : 2328,
            "type" : "SCALAR"
        },
        {
            "bufferView" : 28,
            "componentType" : 5126,
            "count" : 1174,
            "max" : [
                0.04967494681477547,
                0.03999999910593033,
                -0.0002962760627269745
            ],
            "min" : [
                0.04578302428126335,
                -0.03999999910593033,
                -0.015183480456471443
            ],
            "type" : "VEC3"
        },
        {
            "bufferView" : 29,
            "componentType" : 5126,
            "count" : 1174,
            "type" : "VEC3"
        },
        {
            "bufferView" : 30,
            "componentType" : 5126,
            "count" : 1174,
            "type" : "VEC2"
        },
        {
            "bufferView" : 31,
            "componentType" : 5123,
            "count" : 2304,
            "type" : "SCALAR"
        },
        {
            "bufferView" : 32,
            "componentType" : 5126,
            "count" : 645,
            "max" : [
                0.06216353550553322,
                0.03999999910593033,
                -2.823770046234131e-06
            ],
            "min" : [
                0.050507523119449615,
                -0.03999999910593033,
                -0.011549152433872223
            ],
            "type" : "VEC3"
        },
        {
            "bufferView" : 33,
            "componentType" : 5126,
            "count" : 645,
            "type" : "VEC3"
        },
        {
            "bufferView" : 34,
            "componentType" : 5126,
            "count" : 645,
            "type" : "VEC2"
        },
        {
            "bufferView" : 35,
            "componentType" : 5123,
            "count" : 1152,
            "type" : "SCALAR"
        },
        {
            "bufferView" : 36,
            "componentType" : 5126,
            "count" : 1167,
            "max" : [
                0.07337363809347153,
                0.03999999910593033,
                -1.975148916244507e-05
            ],
            "min" : [
                0.06246834248304367,
                -0.03999999910593033,
                -0.011523755267262459
            ],
            "type" : "VEC3"
        },
        {
            "bufferView" : 37,
            "componentType" : 5126,
            "count" : 1167,
            "type" : "VEC3"
        },
        {
            "bufferView" : 38,
            "componentType" : 5126,
            "count" : 1167,
            "type" : "VEC2"
        },
        {
            "bufferView" : 39,
            "componentType" : 5123,
            "count" : 2292,
            "type" : "SCALAR"
        }
    ],
    "bufferViews" : [
        {
            "buffer" : 0,
            "byteLength" : 14040,
            "byteOffset" : 0
        },
        {
            "buffer" : 0,
            "byteLength" : 14040,
            "byteOffset" : 14040
        },
        {
            "buffer" : 0,
            "byteLength" : 9360,
            "byteOffset" : 28080
        },
        {
            "buffer" : 0,
            "byteLength" : 4512,
            "byteOffset" : 37440
        },
        {
            "buffer" : 0,
            "byteLength" : 12156,
            "byteOffset" : 41952
        },
        {
            "buffer" : 0,
            "byteLength" : 12156,
            "byteOffset" : 54108
        },
        {
            "buffer" : 0,
            "byteLength" : 8104,
            "byteOffset" : 66264
        },
        {
            "buffer" : 0,
            "byteLength" : 3768,
            "byteOffset" : 74368
        },
        {
            "buffer" : 0,
            "byteLength" : 14088,
            "byteOffset" : 78136
        },
        {
            "buffer" : 0,
            "byteLength" : 14088,
            "byteOffset" : 92224
        },
        {
            "buffer" : 0,
            "byteLength" : 9392,
            "byteOffset" : 106312
        },
        {
            "buffer" : 0,
            "byteLength" : 4344,
            "byteOffset" : 115704
        },
        {
            "buffer" : 0,
            "byteLength" : 14136,
            "byteOffset" : 120048
        },
        {
            "buffer" : 0,
            "byteLength" : 14136,
            "byteOffset" : 134184
        },
        {
            "buffer" : 0,
            "byteLength" : 9424,
            "byteOffset" : 148320
        },
        {
            "buffer" : 0,
            "byteLength" : 4584,
            "byteOffset" : 157744
        },
        {
            "buffer" : 0,
            "byteLength" : 17964,
            "byteOffset" : 162328
        },
        {
            "buffer" : 0,
            "byteLength" : 17964,
            "byteOffset" : 180292
        },
        {
            "buffer" : 0,
            "byteLength" : 11976,
            "byteOffset" : 198256
        },
        {
            "buffer" : 0,
            "byteLength" : 5568,
            "byteOffset" : 210232
        },
        {
            "buffer" : 0,
            "byteLength" : 15648,
            "byteOffset" : 215800
        },
        {
            "buffer" : 0,
            "byteLength" : 15648,
            "byteOffset" : 231448
        },
        {
            "buffer" : 0,
            "byteLength" : 10432,
            "byteOffset" : 247096
        },
        {
            "buffer" : 0,
            "byteLength" : 4992,
            "byteOffset" : 257528
        },
        {
            "buffer" : 0,
            "byteLength" : 15540,
            "byteOffset" : 262520
        },
        {
            "buffer" : 0,
            "byteLength" : 15540,
            "byteOffset" : 278060
        },
        {
            "buffer" : 0,
            "byteLength" : 10360,
            "byteOffset" : 293600
        },
        {
            "buffer" : 0,
            "byteLength" : 4656,
            "byteOffset" : 303960
        },
        {
            "buffer" : 0,
            "byteLength" : 14088,
            "byteOffset" : 308616
        },
        {
            "buffer" : 0,
            "byteLength" : 14088,
            "byteOffset" : 322704
        },
        {
            "buffer" : 0,
            "byteLength" : 9392,
            "byteOffset" : 336792
        },
        {
            "buffer" : 0,
            "byteLength" : 4608,
            "byteOffset" : 346184
        },
        {
            "buffer" : 0,
            "byteLength" : 7740,
            "byteOffset" : 350792
        },
        {
            "buffer" : 0,
            "byteLength" : 7740,
            "byteOffset" : 358532
        },
        {
            "buffer" : 0,
            "byteLength" : 5160,
            "byteOffset" : 366272
        },
        {
            "buffer" : 0,
            "byteLength" : 2304,
            "byteOffset" : 371432
        },
        {
            "buffer" : 0,
            "byteLength" : 14004,
            "byteOffset" : 373736
        },
        {
            "buffer" : 0,
            "byteLength" : 14004,
            "byteOffset" : 387740
        },
        {
            "buffer" : 0,
            "byteLength" : 9336,
            "byteOffset" : 401744
        },
        {
            "buffer" : 0,
            "byteLength" : 4584,
            "byteOffset" : 411080
        }
    ],
    "buffers" : [
        {
            "byteLength" : 415664,
            "uri" : "data:application/octet-stream;base64,"
        }
    ]
}
